# xmcd CD database file
#
# Track frame offsets:
#	150
#	35707
#	64297
#	101462
#	153300
#	194825
#	223930
#
# Disc length: 3439 seconds
#
# Revision: 0
# Processed by: cddbd v1.5.2PL0 Copyright (c) Steve Scherf et al.
# Submitted via: CDex 1.70beta2
#
DISCID=6b0d6d07
DTITLE=Kiyoshi Kitagawa - I'm Still Here
DYEAR=2007
DGENRE=Jazz
TTITLE0=KG
TTITLE1=Short Story
TTITLE2=Ciao, Ciao
TTITLE3=Another Prayer
TTITLE4=Tomorrow
TTITLE5=Innocent Mistake
TTITLE6=I'm Still Here
EXTD=YEAR: 2007
EXTT0=
EXTT1=
EXTT2=
EXTT3=
EXTT4=
EXTT5=
EXTT6=
PLAYORDER=
